<mxfile host="app.diagrams.net" modified="2023-12-06T04:46:41.355Z" agent="Mozilla/5.0 (Windows NT 10.0; Win64; x64; rv:120.0) Gecko/20100101 Firefox/120.0" version="22.1.5" etag="Gn4G_6I2SDLuCIc2v_4J" type="github">
  <diagram name="Page-1" id="VN8h8KheQE9jFUHUrnjF">
    <mxGraphModel>
      <root>
        <mxCell id="0" />
        <mxCell id="1" parent="0" />
      </root>
    </mxGraphModel>
  </diagram>
</mxfile>
